<svg width="33" height="32" viewBox="0 0 33 32" fill="none" xmlns="http://www.w3.org/2000/svg">
  <mask id="mask0_2207_131" style="mask-type:alpha" maskUnits="userSpaceOnUse" x="0" y="0"
    width="33" height="32">
    <rect x="0.5" width="32" height="32" fill="#D9D9D9" />
  </mask>
  <g mask="url(#mask0_2207_131)">
    <path
      d="M9.83203 28C9.0987 28 8.47114 27.7391 7.94936 27.2173C7.4267 26.6947 7.16536 26.0667 7.16536 25.3333V8H5.83203V5.33333H12.4987V4H20.4987V5.33333H27.1654V8H25.832V25.3333C25.832 26.0667 25.5711 26.6947 25.0494 27.2173C24.5267 27.7391 23.8987 28 23.1654 28H9.83203ZM23.1654 8H9.83203V25.3333H23.1654V8ZM12.4987 22.6667H15.1654V10.6667H12.4987V22.6667ZM17.832 22.6667H20.4987V10.6667H17.832V22.6667Z"
      fill="#FFE6E6" />
  </g>
</svg>